<svg width="154" height="154" viewBox="0 0 154 154" fill="none" xmlns="http://www.w3.org/2000/svg">
<rect x="74.4333" y="15.3999" width="5.13333" height="10.2667" fill="#B57AD2"/>
<rect x="99.7889" y="28.9812" width="10.2666" height="5.13328" transform="rotate(-45 99.7889 28.9812)" fill="#B57AD2"/>
<rect x="130.9" y="148.867" width="10.2667" height="5.13333" fill="#B57AD2"/>
<rect x="130.9" y="123.2" width="10.2667" height="5.13333" fill="#B57AD2"/>
<rect x="130.9" y="97.5334" width="10.2667" height="5.13333" fill="#B57AD2"/>
<rect x="127.792" y="73.6177" width="10.2664" height="5.13321" transform="rotate(-18.4458 127.792 73.6177)" fill="#B57AD2"/>
<rect x="119.817" y="47.001" width="10.2664" height="5.13321" transform="rotate(-18.4458 119.817 47.001)" fill="#B57AD2"/>
<rect x="43.3239" y="25.3567" width="5.13328" height="10.2666" transform="rotate(-44.9919 43.3239 25.3567)" fill="#B57AD2"/>
<rect x="12.8334" y="148.867" width="10.2667" height="5.13333" fill="#B57AD2"/>
<rect x="12.8334" y="123.2" width="10.2667" height="5.13333" fill="#B57AD2"/>
<path d="M81.4857 103H73.5143C50.0721 103 31 121.866 31 145.057C31 147.235 32.7845 149 34.9857 149H120.014C122.216 149 124 147.234 124 145.057C124 121.867 104.928 103 81.4857 103Z" fill="#B57AD2"/>
<path d="M77 60C63.215 60 52 71.3641 52 85.3323V86.6677C52 100.636 63.215 112 77 112C90.785 112 102 100.636 102 86.6677V85.3323C102 71.3641 90.785 60 77 60Z" fill="#B57AD2"/>
<rect x="12.8334" y="97.5334" width="10.2667" height="5.13333" fill="#B57AD2"/>
<rect x="14.8514" y="75.241" width="5.13321" height="10.2664" transform="rotate(-71.5723 14.8514 75.241)" fill="#B57AD2"/>
<rect x="22.8131" y="48.6409" width="5.13353" height="10.2671" transform="rotate(-71.5614 22.8131 48.6409)" fill="#B57AD2"/>
<path fill-rule="evenodd" clip-rule="evenodd" d="M143.733 2.56667C143.738 6.81739 147.183 10.2622 151.433 10.2667C152.851 10.2667 154 11.4159 154 12.8333C154 14.2508 152.851 15.4 151.433 15.4C147.183 15.4045 143.738 18.8493 143.733 23.1C143.733 24.5174 142.584 25.6667 141.167 25.6667C139.749 25.6667 138.6 24.5174 138.6 23.1C138.596 18.8493 135.151 15.4045 130.9 15.4C129.483 15.4 128.333 14.2508 128.333 12.8333C128.333 11.4159 129.483 10.2667 130.9 10.2667C135.151 10.2622 138.596 6.81739 138.6 2.56667C138.6 1.14922 139.749 0 141.167 0C142.584 0 143.733 1.14922 143.733 2.56667ZM138.593 12.8333C139.568 13.5658 140.434 14.4324 141.167 15.4074C141.899 14.4324 142.766 13.5658 143.741 12.8333C142.766 12.1009 141.899 11.2343 141.167 10.2593C140.434 11.2343 139.568 12.1009 138.593 12.8333Z" fill="#B57AD2"/>
<path fill-rule="evenodd" clip-rule="evenodd" d="M15.4 2.56667C15.4045 6.81739 18.8493 10.2622 23.1 10.2667C24.5174 10.2667 25.6667 11.4159 25.6667 12.8333C25.6667 14.2508 24.5174 15.4 23.1 15.4C18.8493 15.4045 15.4045 18.8493 15.4 23.1C15.4 24.5174 14.2508 25.6667 12.8333 25.6667C11.4159 25.6667 10.2667 24.5174 10.2667 23.1C10.2622 18.8493 6.81739 15.4045 2.56667 15.4C1.14922 15.4 0 14.2508 0 12.8333C0 11.4159 1.14922 10.2667 2.56667 10.2667C6.81739 10.2622 10.2622 6.81739 10.2667 2.56667C10.2667 1.14922 11.4159 0 12.8333 0C14.2508 0 15.4 1.14922 15.4 2.56667ZM10.2593 12.8333C11.2343 13.5658 12.1009 14.4324 12.8333 15.4074C13.5658 14.4324 14.4324 13.5658 15.4074 12.8333C14.4324 12.1009 13.5658 11.2343 12.8333 10.2593C12.1009 11.2343 11.2343 12.1009 10.2593 12.8333Z" fill="#B57AD2"/>
</svg>
