<svg width="221" height="221" viewBox="0 0 221 221" fill="none" xmlns="http://www.w3.org/2000/svg">
<g opacity="0.9">
<path d="M221 110.5C221 126.845 217.451 142.36 211.082 156.32C200.195 180.183 181.066 199.49 157.338 210.614C153.04 212.625 148.589 214.37 144.006 215.822C138.852 217.469 133.534 218.736 128.076 219.606C128.054 219.611 128.027 219.616 128.003 219.616C125.326 220.044 122.623 220.373 119.886 220.604C119.303 220.653 118.718 220.698 118.131 220.739C117.305 220.793 116.476 220.842 115.641 220.879C113.936 220.96 112.223 221 110.5 221C108.731 221 106.978 220.96 105.233 220.874C104.444 220.838 103.653 220.793 102.864 220.734C102.274 220.693 101.687 220.653 101.1 220.604C98.2994 220.369 95.5258 220.025 92.7892 219.584C91.4808 219.371 90.1775 219.142 88.8876 218.884C83.2898 217.774 77.8504 216.247 72.5966 214.325C69.5515 213.215 66.5704 211.974 63.6569 210.609C62.6655 210.143 61.6774 209.661 60.6978 209.16C58.1821 207.889 55.7238 206.521 53.3245 205.065C41.3043 197.786 30.7864 188.278 22.334 177.116C17.2606 170.414 12.9357 163.116 9.48092 155.34C3.38737 141.639 0 126.466 0 110.5C0 49.4717 49.4717 0 110.5 0C171.528 0 221 49.4717 221 110.5Z" fill="#FFE152"/>
<path d="M88 142.825V218C82.4308 216.895 77.0193 215.374 71.7924 213.46C68.7629 212.355 65.7971 211.119 62.8985 209.759C61.9121 209.295 60.9291 208.815 59.9545 208.316C57.4518 207.05 55.006 205.689 52.619 204.238C40.6604 196.989 30.1964 187.52 21.7873 176.404C16.7398 169.73 12.4371 162.462 9 154.718V142.825C9 129.027 18.3602 117.416 31.072 114.016C31.5384 113.89 32.0047 113.772 32.4811 113.675C33.7409 113.396 35.0375 113.207 36.3577 113.099C37.1612 113.037 37.9731 113 38.7934 113H58.1999C60.3672 113 62.4808 113.23 64.5189 113.675C64.6347 113.697 64.7521 113.724 64.8678 113.751C65.21 113.828 65.5556 113.912 65.8911 114.002C65.9011 114.007 65.9095 114.007 65.9179 114.011C69.2745 114.909 72.3929 116.378 75.1708 118.309C82.924 123.694 88 132.664 88 142.825Z" fill="#2BA1CF"/>
<path d="M89 142.825V218C83.3646 216.895 77.8888 215.374 72.5997 213.46C69.5342 212.355 66.5331 211.119 63.6 209.759C62.6019 209.295 61.6073 208.815 60.6211 208.316C58.0885 207.05 55.6137 205.689 53.1983 204.238C41.0975 196.989 30.5091 187.52 22 176.404V142.825C22 129.027 31.4715 117.416 44.3345 114.016C44.808 113.89 45.2799 113.772 45.7603 113.675C47.0367 113.396 48.3488 113.207 49.683 113.099C50.496 113.037 51.3176 113 52.1493 113H58.8456C61.0386 113 63.1774 113.23 65.2397 113.675C65.3568 113.697 65.4757 113.724 65.5928 113.751C65.939 113.828 66.2887 113.912 66.6282 114.002C66.6384 114.007 66.6469 114.007 66.6553 114.011C70.0519 114.909 73.2073 116.378 76.0182 118.309C83.8637 123.694 89 132.664 89 142.825Z" fill="#66BAED"/>
<path d="M66 114L65.9295 114.339L57.0126 156.078C56.1568 160.089 52.6497 162.997 48.5755 163C48.5503 163 48.5268 163 48.5034 163C48.4765 163 48.4513 163 48.4245 163C44.3486 162.997 40.8432 160.089 39.9874 156.078L31.0705 114.343L31 114L66 114Z" fill="#F2F0EC"/>
<path d="M50 125.511L36.1975 133L32 113.931L40.5763 109" fill="#D8D5D0"/>
<path d="M49 125.511L62.8025 133L67 113.931L58.4237 109" fill="#D8D5D0"/>
<path d="M8 106V61.0599C8 56.4934 8.77004 52.0192 10.2898 47.7614C15.9769 31.7569 31.3319 21 48.4983 21C50.6252 21 52.7471 21.1627 54.8096 21.4848C64.24 22.9427 72.8936 27.7038 79.1676 34.8924C85.5077 42.1581 89 51.4505 89 61.0599V106" fill="#CC7A3B"/>
<path d="M26.5761 62.813C26.5761 78.7091 35.9399 97.0999 41.0817 106H10V61.0581C10 56.4931 10.7678 52.0188 12.2781 47.7591C17.9025 31.8462 33.0392 21.1208 50 21C37.6122 21.307 26.5761 41.0668 26.5761 62.813Z" fill="#A35418"/>
<path d="M60 102V115.226C60 120.067 56.7418 124.16 52.253 125.519C51.2253 125.832 50.13 126 48.9983 126C42.9228 126 38 121.178 38 115.226V102L60 102Z" fill="#EAB599"/>
<path d="M60 114V114.828C60 119.613 56.8272 123.657 52.4561 125C48.5125 123.795 45.5477 120.386 45 116.215C45.715 116.258 46.4351 116.28 47.1569 116.28C49.1836 116.28 51.1714 116.121 53.1051 115.805C55.4902 115.423 57.7958 114.813 60 114V114Z" fill="#F6CAAE"/>
<path d="M20 79.9992C20 84.9775 16.3638 89.1058 11.6009 89.871C11.0817 89.9559 10.5455 90 9.99915 90C4.47612 90 0 85.5239 0 79.9992C0 74.4761 4.47612 70 9.99915 70C10.5455 70 11.0817 70.0441 11.6009 70.129C16.3638 70.8942 20 75.0208 20 79.9992Z" fill="#F6CAAE"/>
<path d="M20 80.4992C20 85.2904 16.2613 89.2635 11.3643 90C10.4763 86.974 10 83.7881 10 80.4992C10 77.2119 10.4763 74.026 11.3643 71C16.2613 71.7365 20 75.708 20 80.4992Z" fill="#EAB599"/>
<path d="M14 80.4992C14 82.4332 12.4332 84 10.4992 84C8.56682 84 7 82.4332 7 80.4992C7 78.5668 8.56682 77 10.4992 77C12.4332 77 14 78.5668 14 80.4992Z" fill="#EAB599"/>
<path d="M75 67.5775V101.769C69.7618 106.813 63.0447 110.307 55.5714 111.522C55.5128 111.532 55.4492 111.543 55.3907 111.553C53.5336 111.851 51.6281 112 49.6824 112C29.4239 112 13 95.431 13 74.9936V60.9006C13 59.0964 13.1271 57.3208 13.3748 55.5858C22.1028 61.9184 34.6169 61.2922 42.5905 53.6904C45.2305 51.1739 47.0658 48.1781 48.1031 45C48.6802 50.5646 51.2031 55.9807 55.6751 60.2458C60.9986 65.3159 68.0319 67.7615 75 67.5775Z" fill="#EAB599"/>
<path d="M74 67.7292V102.15C68.718 107.229 61.9446 110.746 54.4088 111.969C54.3497 111.98 54.2856 111.99 54.2266 112C36.5332 109.215 23 93.7938 23 75.1952V61.0075C23 60.6303 23.0067 60.2548 23.0202 59.881C29.5422 60.5538 36.3173 58.5115 41.3192 53.7471C43.9813 51.2154 45.832 48.1978 46.8779 45C47.46 50.602 50.004 56.0545 54.5133 60.3482C59.8814 65.4524 66.9736 67.9144 74 67.7292Z" fill="#F6CAAE"/>
<path d="M69 72C69 68.6853 66.0891 66 62.5 66C58.9109 66 56 68.6853 56 72" fill="#EAB599"/>
<path d="M42 72C42 68.6853 39.0887 66 35.4991 66C31.9095 66 29 68.6853 29 72" fill="#EAB599"/>
<path d="M39 73.9992C39 76.2086 37.2086 78 34.9992 78C32.7897 78 31 76.2086 31 73.9992C31 71.7897 32.7897 70 34.9992 70C37.2086 70 39 71.7897 39 73.9992Z" fill="#3D4159"/>
<path d="M67 73.9992C67 76.2086 65.2099 78 63 78C60.7901 78 59 76.2086 59 73.9992C59 71.7897 60.7901 70 63 70C65.2099 70 67 71.7897 67 73.9992Z" fill="#3D4159"/>
<path d="M53.1933 84H44.8084C43.809 84 43 83.3276 43 82.5C43 81.6724 43.809 81 44.8084 81H53.1933C54.191 81 55 81.6724 55 82.5C55 83.3276 54.191 84 53.1933 84Z" fill="#EAB599"/>
<path d="M49.5 97C46.5193 97 43.5385 96.1405 40.8208 94.4195C40.0545 93.9355 39.7752 92.8275 40.1957 91.9455C40.6178 91.0635 41.5806 90.7421 42.3469 91.2261C46.8261 94.0607 52.1739 94.0607 56.6531 91.2261C57.4194 90.7403 58.3822 91.0635 58.8043 91.9455C59.2248 92.8275 58.9455 93.9355 58.1792 94.4195C55.4615 96.1405 52.4807 97 49.5 97Z" fill="#EAB599"/>
<path d="M39 74.5C39 75.3288 38.3274 76 37.5 76C36.6712 76 36 75.3288 36 74.5C36 73.6712 36.6712 73 37.5 73C38.3274 73 39 73.6712 39 74.5Z" fill="white"/>
<path d="M66 74.5C66 75.3288 65.3285 76 64.5007 76C63.6715 76 63 75.3288 63 74.5C63 73.6712 63.6715 73 64.5007 73C65.3285 73 66 73.6712 66 74.5Z" fill="white"/>
<path d="M74 84.5008C74 86.9852 71.9852 89 69.4992 89C67.0148 89 65 86.9852 65 84.5008C65 82.0148 67.0148 80 69.4992 80C71.9852 80 74 82.0148 74 84.5008Z" fill="#EAB599"/>
<path d="M34 84.5008C34 86.9852 31.9865 89 29.5 89C27.0152 89 25 86.9852 25 84.5008C25 82.0148 27.0152 80 29.5 80C31.9865 80 34 82.0148 34 84.5008Z" fill="#EAB599"/>
<path d="M212 142.485V156.387C200.992 180.37 181.651 199.774 157.66 210.953C153.314 212.974 148.814 214.728 144.18 216.187C138.969 217.843 133.592 219.115 128.073 219.99C128.051 219.995 128.024 220 128 220V142.485C128 125.963 140.801 112.408 157.09 111.103C157.948 111.031 158.809 111 159.68 111H180.311C182.751 111 185.126 111.266 187.407 111.788C201.488 114.987 212 127.522 212 142.485Z" fill="#BFD5DE"/>
<path d="M211 142.429V156.306C200.125 180.246 181.018 199.616 157.317 210.775C153.024 212.793 148.578 214.544 144 216V142.429C144 125.072 158.016 111 175.302 111H179.698C196.989 111 211 125.072 211 142.429Z" fill="#DDE8ED"/>
<path d="M139 76.5C139 81.7279 135.182 86.0617 130.182 86.8655C129.636 86.954 129.074 87 128.5 87C122.7 87 118 82.3 118 76.5C118 70.7 122.7 66 128.5 66C129.074 66 129.636 66.046 130.182 66.1345C135.182 66.94 139 71.2738 139 76.5Z" fill="#D3A489"/>
<path d="M178 123L169.5 136L161 123" fill="#F74F4F"/>
<path d="M181 173.694L169.501 188L158 173.694L169.503 132L181 173.694Z" fill="#F74F4F"/>
<path d="M139 76.5C139 81.7957 135.261 86.1858 130.364 87C129.475 83.6552 129 80.1345 129 76.5C129 72.8672 129.475 69.3465 130.364 66C135.261 66.8159 139 71.206 139 76.5Z" fill="#BF8E75"/>
<path d="M133 76.9991C133 79.2083 131.208 81 128.999 81C126.79 81 125 79.2083 125 76.9991C125 74.7899 126.79 73 128.999 73C131.208 73 133 74.7899 133 76.9991Z" fill="#BF8E75"/>
<path d="M170 124.199L156.199 132L152 112.137L160.575 107" fill="#BFD5DE"/>
<path d="M169 124.199L182.802 132L187 112.137L178.424 107" fill="#BFD5DE"/>
<path d="M200 76.5C200 81.7279 203.818 86.0617 208.818 86.8655C209.364 86.954 209.926 87 210.5 87C216.3 87 221 82.3 221 76.5C221 70.7 216.3 66 210.5 66C209.926 66 209.364 66.046 208.818 66.1345C203.818 66.94 200 71.2738 200 76.5Z" fill="#D3A489"/>
<path d="M199.637 76.9635C199.637 82.1751 203.429 86.4954 208.395 87.2967C209.298 84.0051 209.778 80.5403 209.778 76.9635C209.778 73.3884 209.298 69.9237 208.395 66.6304C203.429 67.4333 199.637 71.7537 199.637 76.9635Z" fill="#BF8E75"/>
<path d="M213.794 76.9639C213.794 79.0298 212.124 80.7053 210.066 80.7053C208.008 80.7053 206.338 79.0298 206.338 76.9639C206.338 74.8979 208.008 73.2241 210.066 73.2241C212.124 73.2241 213.794 74.8979 213.794 76.9639Z" fill="#BF8E75"/>
<path d="M207.678 71.4005C207.678 90.7801 193.572 106.858 175.102 109.842C173.077 110.177 170.997 110.345 168.874 110.345C147.443 110.345 130.073 92.9105 130.073 71.4005C130.073 61.2236 133.594 45.9454 139.962 39.0074C147.052 31.2817 157.583 32.4548 168.874 32.4548C170.997 32.4548 173.076 32.6245 175.102 32.9589C193.572 35.9433 207.678 52.0193 207.678 71.4005Z" fill="#BF8E75"/>
<path d="M180.09 99.6025V113.416C180.09 118.473 176.768 122.747 172.191 124.166C171.144 124.492 170.028 124.669 168.873 124.669C162.681 124.669 157.661 119.631 157.661 113.416V99.6025H180.09Z" fill="#BF8E75"/>
<path d="M180 112V112.904C180 118.124 176.616 122.535 171.953 124C167.746 122.686 164.584 118.966 164 114.416C164.763 114.463 165.53 114.488 166.302 114.488C168.463 114.488 170.583 114.313 172.647 113.969C175.191 113.552 177.648 112.888 180 112Z" fill="#D3A489"/>
<path d="M208 71.5009C208 90.9094 193.926 107.011 175.499 110C157.074 107.011 143 90.9094 143 71.5009C143 59.549 148.336 48.8519 156.741 41.6961C161.982 37.2316 168.42 34.1493 175.499 33C192.678 35.7865 206.078 49.974 207.809 67.611C207.936 68.8912 208 70.1901 208 71.5009Z" fill="#D3A489"/>
<path d="M169.501 90C166.205 90 162.912 89.1408 159.909 87.4205C159.06 86.9364 158.751 85.8271 159.217 84.9446C159.682 84.0622 160.747 83.7406 161.594 84.2265C166.544 87.0597 172.456 87.0597 177.407 84.2265C178.253 83.7406 179.318 84.0622 179.783 84.9446C180.249 85.8271 179.94 86.9364 179.093 87.4205C176.09 89.1408 172.794 90 169.501 90Z" fill="#BF8E75"/>
<path d="M161 68.5009C161 70.9856 158.986 73 156.499 73C154.014 73 152 70.9856 152 68.5009C152 66.0144 154.014 64 156.499 64C158.986 64 161 66.0144 161 68.5009Z" fill="#3D4159"/>
<path d="M187 68.5009C187 70.9856 184.986 73 182.501 73C180.014 73 178 70.9856 178 68.5009C178 66.0144 180.014 64 182.501 64C184.986 64 187 66.0144 187 68.5009Z" fill="#3D4159"/>
<path d="M160 67.4993C160 68.3277 159.329 69 158.5 69C157.671 69 157 68.3277 157 67.4993C157 66.6723 157.671 66 158.5 66C159.329 66 160 66.6723 160 67.4993Z" fill="white"/>
<path d="M185 67.4993C185 68.3277 184.329 69 183.5 69C182.671 69 182 68.3277 182 67.4993C182 66.6723 182.671 66 183.5 66C184.329 66 185 66.6723 185 67.4993Z" fill="white"/>
<path d="M174.041 80H164.959C163.878 80 163 79.3278 163 78.4993C163 77.6708 163.878 77 164.959 77H174.041C175.122 77 176 77.6708 176 78.4993C175.998 79.3278 175.122 80 174.041 80Z" fill="#BF8E75"/>
<path d="M182 142H199V147H182L182 142Z" fill="#BFD5DE"/>
<path d="M167 21.0613C178.719 21.9035 188.128 31.4359 188.723 43.4354L188.835 45.6886H195.576L199.206 70L208 67.2595L206.82 43.4371C206.196 30.8314 195.842 20.9526 183.314 21.0002L167 21.0613Z" fill="#2A2F4F"/>
<path d="M205.966 12C215.345 21.3791 215.345 36.5866 205.966 45.9657C196.587 55.3448 181.379 55.3448 172 45.9657L205.966 12Z" fill="#3D4159"/>
<path d="M172.958 45.6877H143.487L139.837 70L131 67.2596L132.184 43.4363C132.811 30.8344 143.216 20.9526 155.808 21.0002L198.372 21.1615L204 31.3098" fill="#3D4159"/>
<path d="M172 21.0613C160.281 21.9035 150.872 31.4359 150.277 43.4354L150.165 45.6886H143.426L139.794 70L131 67.2595L132.18 43.4371C132.804 30.8314 143.158 20.9526 155.686 21.0002L172 21.0613Z" fill="#2A2F4F"/>
<path d="M157 202.33V210.615C142.731 217.276 126.806 221 110.003 221C93.1992 221 77.2689 217.276 63 210.61V202.33C63 185.982 74.1373 172.231 89.2657 168.2C89.819 168.052 90.3756 167.915 90.9406 167.794C92.443 167.469 93.9859 167.244 95.5526 167.118C96.5119 167.04 97.4762 167 98.4541 167H121.543C124.126 167 126.638 167.271 129.064 167.794C129.205 167.821 129.345 167.853 129.481 167.885C129.888 167.98 130.294 168.079 130.697 168.187C130.712 168.19 130.716 168.19 130.729 168.195C134.722 169.259 138.437 171.001 141.736 173.287C150.964 179.665 157 190.293 157 202.33Z" fill="#3D4159"/>
<path d="M131 168L130.915 168.4L119.779 220.605C119.203 220.654 118.625 220.699 118.045 220.74C117.228 220.793 116.409 220.842 115.584 220.879C113.9 220.96 112.207 221 110.504 221C108.756 221 107.024 220.96 105.299 220.874C104.52 220.839 103.738 220.793 102.959 220.735C102.375 220.694 101.796 220.654 101.216 220.605L90.0833 168.405L90 168H131Z" fill="#66BAED"/>
<path d="M120 180L110.499 195L101 180" fill="#3D4159"/>
<path d="M118 220.739C117.188 220.793 116.373 220.842 115.553 220.879C113.879 220.96 112.195 221 110.502 221C108.765 221 107.042 220.96 105.327 220.874C104.552 220.838 103.775 220.793 103 220.734L110.502 191L118 220.739Z" fill="#3D4159"/>
<path d="M110 181.951L93.898 191L89 167.96L99.0042 162" fill="#2BA1CF"/>
<path d="M111 181.951L127.102 191L132 167.96L121.995 162" fill="#2BA1CF"/>
<path d="M131.905 198.325H136.859L128.207 219.729C124.205 220.382 120.131 220.81 116 221L131.2 168.392L131.316 168L142 171.548L131.905 198.325Z" fill="#2A2F4F"/>
<path d="M105 221C100.864 220.806 96.7879 220.37 92.7861 219.712L84.1437 198.328H89.0971L79 171.549L89.6863 168L89.8022 168.392L105 221Z" fill="#2A2F4F"/>
<path d="M123 153V168.429C123 174.079 119.297 178.853 114.196 180.438C113.028 180.803 111.784 181 110.497 181C103.594 181 98 175.372 98 168.429V153L123 153Z" fill="#EAB599"/>
<path d="M123 167V167.98C123 173.633 119.192 178.411 113.948 180C109.215 178.574 105.657 174.547 105 169.617C105.86 169.669 106.722 169.695 107.589 169.695C110.021 169.695 112.406 169.506 114.726 169.134C117.588 168.683 120.353 167.961 123 167Z" fill="#F6CAAE"/>
<path d="M76 128.001C76 133.974 71.6356 138.927 65.9216 139.846C65.2969 139.947 64.6549 140 64.0009 140C57.3723 140 52 134.629 52 128.001C52 121.372 57.3705 116 64.0009 116C64.6549 116 65.2969 116.053 65.9216 116.155C71.6356 117.075 76 122.028 76 128.001Z" fill="#F6CAAE"/>
<path d="M76 128.5C76 134.299 71.886 139.107 66.4999 140C65.5222 136.336 65 132.479 65 128.5C65 124.519 65.5222 120.664 66.4999 117C71.886 117.893 76 122.701 76 128.5Z" fill="#EAB599"/>
<path d="M68 128C68 130.208 66.2085 132 64 132C61.7899 132 60 130.208 60 128C60 125.79 61.7899 124 64 124C66.2085 124 68 125.79 68 128Z" fill="#EAB599"/>
<path d="M145 128.001C145 133.974 149.364 138.927 155.078 139.846C155.701 139.947 156.345 140 156.999 140C163.628 140 169 134.629 169 128.001C169 121.372 163.629 116 156.999 116C156.345 116 155.701 116.053 155.078 116.155C149.364 117.075 145 122.028 145 128.001Z" fill="#F6CAAE"/>
<path d="M145 128.5C145 134.299 149.114 139.107 154.5 140C155.478 136.336 156 132.479 156 128.5C156 124.519 155.478 120.664 154.5 117C149.114 117.893 145 122.701 145 128.5Z" fill="#EAB599"/>
<path d="M155 104.685V121.319C155 143.057 139.004 161.089 118.059 164.436C117.99 164.448 117.915 164.46 117.845 164.471C115.617 164.826 113.331 165 110.997 165C86.6975 165 67 145.443 67 121.32V104.685C67 99.6055 67.8725 94.7239 69.4849 90.1884C75.5025 73.188 91.8187 61 110.997 61H111.001C113.331 61 115.62 61.179 117.852 61.5285C138.898 64.7925 155 82.8736 155 104.685Z" fill="#EAB599"/>
<path d="M161 128C161 130.208 159.21 132 157 132C154.792 132 153 130.208 153 128C153 125.79 154.792 124 157 124C159.21 124 161 125.79 161 128Z" fill="#EAB599"/>
<path d="M154 105.18V121.823C154 143.572 138.285 161.616 117.706 164.965C117.636 164.976 117.564 164.988 117.494 165C96.8173 161.733 81 143.643 81 121.823V105.18C81 83.3569 96.8206 65.2658 117.503 62C138.181 65.2658 154 83.3569 154 105.18Z" fill="#F6CAAE"/>
<path d="M102 119.999C102 122.761 99.7611 125 97.0009 125C94.2389 125 92 122.761 92 119.999C92 117.239 94.2389 115 97.0009 115C99.7611 115 102 117.239 102 119.999Z" fill="#3D4159"/>
<path d="M129 119.999C129 122.761 126.761 125 124 125C121.239 125 119 122.761 119 119.999C119 117.239 121.239 115 124 115C126.761 115 129 117.239 129 119.999Z" fill="#3D4159"/>
<path d="M100 119.001C100 120.105 99.1046 121 97.9992 121C96.8954 121 96 120.105 96 119.001C96 117.895 96.8954 117 97.9992 117C99.1046 117 100 117.895 100 119.001Z" fill="white"/>
<path d="M128 119.001C128 120.105 127.105 121 126.001 121C124.895 121 124 120.105 124 119.001C124 117.895 124.895 117 126.001 117C127.105 117 128 117.895 128 119.001Z" fill="white"/>
<path d="M115.041 130H105.959C104.877 130 104 129.104 104 128C104 126.894 104.877 126 105.959 126H115.041C116.123 126 117 126.894 117 128C116.998 129.104 116.121 130 115.041 130Z" fill="#EAB599"/>
<path d="M110.5 143C106.892 143 103.282 142.14 99.9943 140.42C99.0665 139.935 98.7267 138.827 99.2381 137.946C99.7478 137.064 100.914 136.743 101.842 137.226C107.264 140.061 113.736 140.061 119.158 137.226C120.086 136.741 121.252 137.063 121.762 137.946C122.273 138.827 121.933 139.935 121.006 140.42C117.716 142.14 114.108 143 110.5 143Z" fill="#EAB599"/>
<path d="M155 90.0294V107H146.811V93.7091L87.6972 82.8483L75.1894 80.5493V107H67V90.0277C67 70.6807 82.8584 55 102.421 55H119.579C120.045 55 120.511 55.0084 120.977 55.032C139.888 55.7517 155 71.1432 155 90.0294Z" fill="#2A2F4F"/>
<path d="M155 90.0189V107H146.847V93.7009L88 82.8334C91.2424 67.3551 104.754 55.6277 121.13 55C139.956 55.7202 155 71.1212 155 90.0189Z" fill="#3D4159"/>
</g>
</svg>
