<?xml version="1.0" standalone="no"?>
<!DOCTYPE svg PUBLIC "-//W3C//DTD SVG 20010904//EN"
 "http://www.w3.org/TR/2001/REC-SVG-20010904/DTD/svg10.dtd">
<svg version="1.0" xmlns="http://www.w3.org/2000/svg"
 width="78.000000pt" height="78.000000pt" viewBox="0 0 78.000000 78.000000"
 preserveAspectRatio="xMidYMid meet">

<g transform="translate(0.000000,78.000000) scale(0.100000,-0.100000)"
fill="#000000" stroke="none">
<path d="M323 764 c-51 -19 -108 -79 -124 -132 -10 -34 -17 -41 -51 -51 -61
-19 -115 -74 -134 -137 -14 -49 -14 -59 0 -108 19 -64 84 -131 139 -141 31 -6
36 -12 47 -52 23 -81 110 -143 201 -143 77 0 170 78 185 155 5 27 12 34 37 39
56 11 107 53 133 109 13 29 24 63 24 77 0 83 -60 169 -140 197 -42 15 -48 21
-59 59 -31 106 -154 166 -258 128z m105 -140 c33 -23 30 -73 -8 -109 l-30 -28
-30 31 c-35 37 -39 73 -10 102 24 24 48 25 78 4z m-166 -203 l33 -30 -30 -31
c-24 -25 -36 -30 -65 -28 -44 4 -68 44 -49 80 25 48 65 51 111 9z m368 -3 c13
-25 13 -31 0 -55 -23 -41 -69 -43 -111 -5 l-33 29 35 32 c43 40 86 39 109 -1z
m-206 -159 c30 -35 33 -74 9 -101 -33 -36 -103 -7 -103 43 0 20 47 87 62 88 3
1 18 -13 32 -30z"/>
</g>
</svg>
