<svg width="154" height="154" viewBox="0 0 154 154" fill="none" xmlns="http://www.w3.org/2000/svg">
<path d="M154 77C154 103.614 140.498 127.075 119.969 140.907C115.17 144.138 109.987 146.844 104.506 148.943C95.964 152.209 86.6926 154 77 154C65.736 154 55.0346 151.58 45.3923 147.237C40.1751 144.883 35.2629 141.966 30.7403 138.562C12.0717 124.511 0 102.165 0 77C0 69.0894 1.19114 61.4586 3.40686 54.2771C13.1026 22.8423 42.3846 0 77 0C111.615 0 140.897 22.8423 150.593 54.2771C152.809 61.4586 154 69.0894 154 77Z" fill="white"/>
<ellipse cx="115.393" cy="84.5855" rx="19.8842" ry="8.19123" fill="#B57AD2"/>
<path d="M143.811 95.722C143.519 97.2733 142.828 98.7155 141.724 99.8517C140.649 100.958 139.306 101.772 137.911 102.41C134.776 103.845 131.335 104.564 127.949 105.117C124.417 105.693 120.848 106.045 117.28 106.321C113.688 106.598 110.092 106.824 106.494 107.005C99.3112 107.366 92.1244 107.615 84.9436 108.017C77.8492 108.415 70.7391 108.905 63.7174 110.033C60.346 110.575 56.9536 111.245 53.7514 112.458C52.3119 113.004 50.6874 113.666 49.6084 114.806C49.2128 115.224 49.0826 115.546 49.2238 116.107C49.3941 116.785 49.7511 117.418 50.1239 118.002C51.0274 119.419 52.1846 120.672 53.3786 121.847C53.7174 122.18 54.0625 122.506 54.4123 122.828C54.6062 123.006 54.7106 123.051 54.9566 123.156C56.409 123.776 58.0297 124.012 59.5858 124.211C61.2996 124.43 63.024 124.558 64.7488 124.656C67.8002 124.828 70.8589 124.884 73.9134 124.972C80.7837 125.171 87.6713 125.416 94.4693 126.499C100.995 127.539 107.616 129.458 113.02 133.392C115.679 135.328 117.998 137.731 119.739 140.527C119.787 140.606 119.836 140.685 119.883 140.764C119.973 140.912 119.971 140.847 119.874 140.971C119.775 141.097 119.536 141.196 119.399 141.287C119.033 141.528 118.665 141.767 118.296 142.002C117.604 142.442 116.906 142.871 116.201 143.289C114.786 144.127 113.345 144.919 111.88 145.665C110.375 146.431 108.845 147.148 107.292 147.813C106.548 148.132 105.8 148.439 105.046 148.734C104.903 148.791 104.579 148.974 104.485 148.893C104.373 148.796 104.296 148.476 104.223 148.34C104.038 147.991 103.827 147.654 103.592 147.337C101.723 144.819 98.6153 143.305 95.7651 142.198C92.559 140.952 89.2094 140.121 85.8402 139.456C82.3573 138.769 78.8455 138.257 75.3249 137.809C71.8633 137.369 68.3968 136.968 64.938 136.505C61.5488 136.051 58.1407 135.547 54.847 134.604C52.1108 133.822 49.3941 132.681 47.334 130.663C46.8261 130.165 46.3609 129.613 45.8977 129.075C44.7952 127.795 43.7514 126.458 42.8274 125.043C41.1425 122.461 39.7892 119.506 39.7286 116.374C39.6632 112.993 41.2604 109.913 43.8715 107.811C46.4665 105.722 49.7417 104.589 52.9424 103.819C56.298 103.012 59.7404 102.552 63.173 102.226C70.2391 101.555 77.363 101.445 84.4561 101.378C91.6479 101.309 98.8397 101.342 106.031 101.225C113.134 101.11 120.285 100.93 127.326 99.9133C129.053 99.6641 130.776 99.3576 132.467 98.9252C134.043 98.5223 135.651 98.0326 137.05 97.1815C137.65 96.8163 138.262 96.3681 138.601 95.7361C138.918 95.1437 139.071 94.3668 138.978 93.7011C138.771 92.2284 137.334 91.2224 136.138 90.5463C134.72 89.7443 133.165 89.199 131.602 88.7596C131.467 88.7219 129.746 88.1948 129.689 88.3209C129.689 88.0735 129.798 87.7869 129.849 87.5471C129.968 86.9883 130.088 86.4298 130.209 85.8716C130.327 85.3248 130.446 84.7782 130.567 84.2317C130.576 84.1915 130.707 83.4714 130.742 83.4714C130.747 83.5739 132.13 83.8307 132.258 83.863C133.749 84.2395 135.222 84.7138 136.636 85.321C139.229 86.4348 141.803 88.0792 143.131 90.6604C143.932 92.2155 144.155 94.0101 143.811 95.722Z" fill="#B57AD2"/>
<path d="M150.593 54.2771H3.40686C13.1026 22.8423 42.3846 0 77 0C111.615 0 140.897 22.8423 150.593 54.2771Z" fill="#F0E3F7"/>
<path d="M73.9546 97.7649L45.3923 147.237C40.1751 144.883 35.2629 141.966 30.7403 138.562L7.18772 97.7649C-2.02399 81.8086 1.63115 63.3789 12.8291 51.6938C19.668 44.5595 29.3197 39.9426 40.5711 39.9426C70.246 39.9426 88.792 72.0658 73.9546 97.7649Z" fill="#B57AD2"/>
<path d="M60.6528 78.4895C60.6528 87.9473 54.1143 95.8764 45.3118 98.0072C43.7916 98.3793 42.2023 98.5733 40.569 98.5733C29.4819 98.5733 20.4889 89.5806 20.4889 78.4895C20.4889 67.4021 29.4816 58.4094 40.569 58.4094C42.2026 58.4094 43.7916 58.6037 45.3118 58.9755C54.1147 61.1066 60.6528 69.0357 60.6528 78.4895Z" fill="#F0E3F7"/>
<path d="M60.6527 78.4895C60.6527 87.9473 54.1143 95.8764 45.3118 98.0073C36.5093 95.8764 29.975 87.947 29.975 78.4895C29.975 69.0358 36.5093 61.1067 45.3118 58.9758C54.1147 61.1067 60.6527 69.0358 60.6527 78.4895Z" fill="white"/>
<path d="M115.393 84.5855L139.811 42.2927C150.664 23.4959 137.098 0.000244141 115.393 0.000244141C93.6889 0.000244141 80.1234 23.4962 90.9757 42.2927L115.393 84.5855Z" fill="#B57AD2"/>
<path d="M130.082 28.1943C130.082 35.112 125.3 40.9115 118.861 42.4701C117.749 42.7423 116.587 42.884 115.392 42.884C107.283 42.884 100.705 36.3066 100.705 28.194C100.705 20.0845 107.283 13.5071 115.392 13.5071C116.587 13.5071 117.749 13.6491 118.861 13.921C125.3 15.4799 130.082 21.2797 130.082 28.1943Z" fill="#F0E3F7"/>
<path d="M130.082 28.1944C130.082 35.1121 125.3 40.9116 118.861 42.4702C112.423 40.9116 107.643 35.1118 107.643 28.1944C107.643 21.2798 112.423 15.4799 118.861 13.9214C125.3 15.4799 130.082 21.2798 130.082 28.1944Z" fill="white"/>
</svg>
