<svg width="154" height="154" viewBox="0 0 154 154" fill="none" xmlns="http://www.w3.org/2000/svg">
<path d="M81.4296 102.105H72.5698C46.5146 102.105 25.3168 123.302 25.3168 149.358C25.3168 151.805 27.3001 153.788 29.7467 153.788H124.253C126.699 153.788 128.683 151.805 128.683 149.358C128.683 123.303 107.485 102.105 81.4296 102.105Z" fill="#B57AD2"/>
<path d="M76.9997 102.105H72.5698C46.5146 102.105 25.3168 123.302 25.3168 149.358C25.3168 151.805 27.3001 153.788 29.7467 153.788H76.9997V102.105Z" fill="#B57AD2"/>
<path d="M76.9997 53.3735C61.5293 53.3735 48.9431 65.9597 48.9431 81.4301V82.909C48.9431 98.3794 61.5293 110.966 76.9997 110.966C92.4701 110.966 105.056 98.3794 105.056 82.909V81.4301C105.056 65.9597 92.4701 53.3735 76.9997 53.3735Z" fill="#B57AD2"/>
<path d="M48.9434 81.4298V82.9088C48.9434 98.3791 61.5296 110.965 77 110.965V53.3735C61.5293 53.3735 48.9434 65.9597 48.9434 81.4298Z" fill="#B57AD2"/>
<path d="M97.7419 14.5189L87.0906 11.1625L80.6067 2.0696C79.7756 0.904068 78.4317 0.21167 76.9997 0.21167C75.5677 0.21167 74.2241 0.904068 73.3927 2.0696L66.9091 11.1625L56.2581 14.5189C54.8923 14.9496 53.8191 16.0135 53.3763 17.3755C52.9339 18.7368 53.1769 20.229 54.0287 21.3798L60.673 30.356L60.5737 41.5234C60.5611 42.9551 61.2412 44.3047 62.3998 45.1469C63.1665 45.7039 64.0799 45.9927 65.0039 45.9927C65.4762 45.9927 65.9508 45.9172 66.4101 45.7635L77 42.2182L87.5899 45.7632C88.9479 46.2189 90.4416 45.9885 91.5999 45.1463C92.7585 44.3047 93.4389 42.9548 93.4259 41.5228L93.3267 30.3554L99.9709 21.3795C100.823 20.2287 101.066 18.7368 100.623 17.3748C100.181 16.0129 99.1077 14.949 97.7419 14.5189Z" fill="#B57AD2"/>
<path d="M73.3927 2.0696L66.9091 11.1625L56.2581 14.5189C54.8923 14.9496 53.8191 16.0135 53.3763 17.3755C52.9339 18.7368 53.1769 20.229 54.0287 21.3798L60.673 30.356L60.5737 41.5234C60.5611 42.9551 61.2412 44.3047 62.3998 45.1469C63.1665 45.7039 64.0799 45.9927 65.0039 45.9927C65.4762 45.9927 65.9508 45.9172 66.4101 45.7635L77 42.2182V0.21167C75.568 0.21167 74.2241 0.903467 73.3927 2.0696Z" fill="#B57AD2"/>
<path d="M153.783 30.6671C153.34 29.3054 152.267 28.2413 150.901 27.8109L140.25 24.4548L133.766 15.3618C132.935 14.1963 131.592 13.5039 130.159 13.5039C128.727 13.5039 127.384 14.1963 126.553 15.3618L120.069 24.4548L109.418 27.8109C108.052 28.2413 106.979 29.3051 106.536 30.6671C106.093 32.0287 106.336 33.5209 107.189 34.6717L113.833 43.6479L113.734 54.8153C113.721 56.2473 114.401 57.5969 115.559 58.4388C116.718 59.281 118.212 59.5096 119.57 59.056L130.159 55.511L140.749 59.056C141.209 59.21 141.683 59.2849 142.156 59.2849C143.079 59.2849 143.993 58.9959 144.76 58.4388C145.918 57.5972 146.598 56.2473 146.585 54.8153L146.486 43.6479L153.13 34.6717C153.983 33.5209 154.226 32.0287 153.783 30.6671Z" fill="#B57AD2"/>
<path d="M44.5821 27.8109L33.9311 24.4548L27.4469 15.3618C26.6155 14.1963 25.2719 13.5039 23.8399 13.5039C22.4079 13.5039 21.0643 14.1963 20.2329 15.3618L13.7496 24.4548L3.09833 27.8109C1.73249 28.2413 0.659298 29.3051 0.216849 30.6671C-0.225901 32.0287 0.0174312 33.5209 0.869244 34.6717L7.5135 43.6479L7.41424 54.8153C7.40161 56.247 8.08168 57.5966 9.24029 58.4385C10.3989 59.2807 11.8929 59.5096 13.2506 59.0557L23.8405 55.5107L34.4304 59.0557C34.8897 59.2097 35.3643 59.2846 35.8366 59.2846C36.7603 59.2846 37.674 58.9956 38.4407 58.4385C39.599 57.5969 40.2794 56.247 40.2668 54.8153L40.1675 43.6479L46.8118 34.6717C47.6636 33.5212 47.9069 32.029 47.4642 30.6671C47.0211 29.3051 45.9476 28.2413 44.5821 27.8109Z" fill="#B57AD2"/>
</svg>
